<?xml version='1.0' encoding='UTF-8'?>
<svg x="0px" y="0px" viewBox="0 0 32 32" version="1.1" xmlns="http://www.w3.org/2000/svg" xmlns:xlink="http://www.w3.org/1999/xlink" xml:space="preserve" id="Слой_1">
  <path d="M16,8C9.4,8,4,14,4,16s5.4,8,12,8s12-6,12-8S22.6,8,16,8z M16,22c-3.3,0-6-2.7-6-6s2.7-6,6-6s6,2.7,6,6  S19.3,22,16,22z" fill="#727272" class="Black" />
  <g>
    <path d="M25.3,9.6L28,7l-3-3l-3.3,3.4C23.1,8,24.3,8.7,25.3,9.6z" fill="#727272" class="Black" />
    <path d="M6.7,22.4L4,25l3,3l3.3-3.4C8.9,24,7.7,23.3,6.7,22.4z" fill="#727272" class="Black" />
  </g>
  <path d="M18,16c-1.1,0-2-0.9-2-2c0-0.8,0.5-1.5,1.2-1.8C16.8,12.1,16.4,12,16,12c-2.2,0-4,1.8-4,4c0,2.2,1.8,4,4,4  s4-1.8,4-4c0-0.4-0.1-0.8-0.2-1.2C19.5,15.5,18.8,16,18,16z" fill="#727272" class="Black" />
</svg>